<?xml version="1.0" standalone="no"?><!DOCTYPE svg PUBLIC "-//W3C//DTD SVG 1.1//EN" "http://www.w3.org/Graphics/SVG/1.1/DTD/svg11.dtd"><svg t="1571725051967" class="icon" viewBox="0 0 1024 1024" version="1.1" xmlns="http://www.w3.org/2000/svg" p-id="2510" xmlns:xlink="http://www.w3.org/1999/xlink" width="200" height="200"><defs><style type="text/css"></style></defs><path d="M860.413668 718.295459c-85.794114 0-155.345272 68.433664-155.345272 152.809553 0 84.478411 69.551158 152.894988 155.345272 152.894988 85.790697 0 155.338437-68.419995 155.338437-152.894988 0-84.375889-69.544323-152.809553-155.338437-152.809553m102.5531 112.989875s-111.769859 108.109811-112.316645 108.649762c-12.729858 12.316351-19.397227 10.354757-25.049626 4.757037l-66.837733-65.757831c-5.683155-5.549876-5.348249-14.951175 0.724492-20.914558 6.065905-5.963383 15.569727-6.277785 21.252881-0.669813l54.675166 53.793473 105.861154-101.726086c6.120584-5.891617 15.962729-5.765173 21.977373 0.256306a15.122046 15.122046 0 0 1-0.287062 21.61171M344.982587 103.557819h238.009037c25.073548 0 46.223907-23.214476 46.223907-51.828462 0-28.613986-21.099098-51.732774-47.570367-51.732774H344.982587c-26.41659 0-47.546445 23.118788-47.546446 51.732774 0 28.613986 21.174281 51.828462 47.546446 51.828462" p-id="2511"></path><path d="M842.465423 670.749014c27.708372 0 54.077119 5.655816 77.995581 15.856789V174.34608c0-70.217553-38.51081-118.867822-119.110458-118.867823h-107.286215c1.086737 5.625059 1.708706 11.359476 1.708706 17.165658 0.054679 43.517317-32.045067 86.3409-70.220971 86.3409H296.017916c-40.161419 0-72.291922-42.823583-72.291922-86.3409 0.051261-5.806182 0.645891-11.540598 1.756549-17.165658H116.914799C29.651198 55.478257 8.237698 104.128527 8.237698 174.34608v695.415889c0 75.43594 30.68152 117.668311 115.286375 117.668311h568.219836c-28.432863-33.500884-45.554095-76.601278-45.554095-123.631694 0-106.60615 87.882153-193.049572 196.275609-193.049572M237.262361 319.54164h465.099445c17.169075 0 31.706743 15.726927 33.00536 33.910973 0 16.940109-18.081524 35.120737-35.250599 35.120738H233.694583c-17.199832 0-28.125296-18.180629-28.125296-35.120738 0-16.967448 14.517164-33.910974 31.693074-33.910973m209.442895 458.924183H233.694583c-17.199832 0-28.125296-18.156707-28.125296-35.148077 0-16.916187 14.517164-33.856295 31.693074-33.856295h211.66763c17.223754 0 31.7375 15.675666 33.036116 33.856295 0 16.994787-18.081524 35.148077-35.260851 35.148077m-214.917589-191.908158c-17.17591 0-34.324481-20.764192-34.32448-37.707717 0-16.864925 14.513746-31.327411 31.713578-31.327411H694.248871c17.199832 0 31.710161 13.150199 33.032699 31.327411 0 16.943526-11.88234 37.707718-29.078754 37.707717H231.787667z" p-id="2512"></path></svg>