<?xml version="1.0" standalone="no"?><!DOCTYPE svg PUBLIC "-//W3C//DTD SVG 1.1//EN" "http://www.w3.org/Graphics/SVG/1.1/DTD/svg11.dtd"><svg t="1568880928643" class="icon" viewBox="0 0 1120 1024" version="1.1" xmlns="http://www.w3.org/2000/svg" p-id="7669" xmlns:xlink="http://www.w3.org/1999/xlink" width="218.75" height="200"><defs><style type="text/css"></style></defs><path d="M586.752 461.824c-7.168 0-14.848-2.048-22.016-5.632l-343.552-178.688c-15.36-8.192-25.088-23.552-25.088-41.472 0-17.408 9.728-33.28 25.088-41.472l343.552-178.688c13.824-7.168 30.208-7.168 43.52 0l343.04 178.688c15.36 8.192 25.088 24.064 25.088 41.472s-9.728 33.28-25.088 41.472l-343.04 178.688c-6.144 3.584-13.824 5.632-21.504 5.632z m-338.944-225.792l338.944 176.128L925.696 236.032l-338.944-176.128-338.944 176.128zM662.016 1013.248c-8.192 0-16.384-2.048-23.552-6.656-14.336-8.704-23.04-23.552-23.04-39.936v-421.376c0-17.408 9.728-33.28 24.576-40.96l349.184-189.44c14.336-8.192 31.744-7.68 46.08 0.512 14.336 8.704 23.04 23.552 23.04 39.936v421.376c0 16.384-9.216 32.256-24.064 40.448 0 0-0.512 0-0.512 0.512l-349.696 189.44c-6.656 4.096-14.336 6.144-22.016 6.144z m2.56-466.432V963.072l345.6-187.392v-416.256l-345.6 187.392zM512 1013.248c-7.68 0-15.36-2.048-22.528-5.632l-349.696-189.44s-0.512 0-0.512-0.512c-14.848-8.704-24.064-24.064-24.064-40.448v-421.376c0-16.896 8.704-31.744 23.04-39.936 14.336-8.192 31.232-8.704 46.08-0.512l349.184 189.44c14.848 7.68 24.576 23.552 24.576 40.96v421.376c0 16.896-8.704 31.744-23.04 39.936-6.656 4.096-14.848 6.144-23.04 6.144z m-347.648-237.568l345.6 187.392v-416.256l-345.6-187.392v416.256z" p-id="7670"></path></svg>