<?xml version="1.0" standalone="no"?><!DOCTYPE svg PUBLIC "-//W3C//DTD SVG 1.1//EN" "http://www.w3.org/Graphics/SVG/1.1/DTD/svg11.dtd"><svg class="icon" width="200px" height="200.00px" viewBox="0 0 1024 1024" version="1.1" xmlns="http://www.w3.org/2000/svg"><path fill="#1296db" d="M1018.825927 908.565254l-63.301678-537.857391a103.434114 103.434114 0 0 0-103.434113-91.435756H687.836763v-103.434114a175.837993 175.837993 0 0 0-351.675986 0v103.434114H171.907405a103.434114 103.434114 0 0 0-103.434114 91.435756L5.171614 908.565254a103.434114 103.434114 0 0 0 103.434113 115.43247h806.786086a103.434114 103.434114 0 0 0 103.434114-115.43247zM377.534423 175.631125a134.464348 134.464348 0 0 1 268.928695 0v103.434113H377.534423z m584.402741 786.099263a62.060468 62.060468 0 0 1-46.545351 20.686823H108.605727a62.060468 62.060468 0 0 1-62.060468-69.300856l63.301678-537.857391a62.060468 62.060468 0 0 1 62.060468-54.82008h680.182731a62.060468 62.060468 0 0 1 62.060468 54.82008l63.301677 537.857391a62.060468 62.060468 0 0 1-15.515117 48.614033zM356.8476 455.1101m-41.373646 0a41.373645 41.373645 0 1 0 82.747291 0 41.373645 41.373645 0 1 0-82.747291 0ZM667.149941 455.1101m-41.373646 0a41.373645 41.373645 0 1 0 82.747291 0 41.373645 41.373645 0 1 0-82.747291 0Z" /></svg>