<?xml version="1.0" standalone="no"?><!DOCTYPE svg PUBLIC "-//W3C//DTD SVG 1.1//EN" "http://www.w3.org/Graphics/SVG/1.1/DTD/svg11.dtd"><svg class="icon" width="200px" height="199.80px" viewBox="0 0 1025 1024" version="1.1" xmlns="http://www.w3.org/2000/svg"><path fill="#1296db" d="M988.938518 438.703589 883.651704 416.028791C874.540838 380.711387 860.56743 347.338998 842.49925 316.730581L900.90093 226.184945C921.630711 205.455163 908.117965 184.264721 886.671599 162.818354L860.823353 136.970109C839.428172 115.574928 818.186544 102.062181 797.507948 122.791962L706.962311 181.193642C676.353894 163.074278 642.981506 149.10087 607.664101 139.990003L584.938119 34.703189C584.938119 5.425572 560.420674 0 530.119364 0L493.573528 0C463.272218 0 438.703589 5.425572 438.703589 34.703189L416.028791 139.990003C380.711387 149.10087 347.338998 163.074278 316.679396 181.193642L226.184945 122.740778C205.455163 102.062181 184.264721 115.574928 162.818354 136.970109L136.970109 162.818354C115.574928 184.264721 102.062181 205.455163 122.740778 226.184945L181.193642 316.730581C163.074278 347.338998 149.10087 380.711387 140.041188 416.028791L34.703189 438.703589C5.425572 438.703589 0 463.272218 0 493.573528L0 530.119364C0 560.420674 5.425572 584.938119 34.703189 584.938119L140.041188 607.664101C149.10087 642.981506 163.074278 676.353894 181.193642 706.962311L122.740778 797.507948C102.062181 818.186544 115.574928 839.428172 136.970109 860.823353L162.818354 886.671599C184.264721 908.117965 205.455163 921.630711 226.184945 900.90093L316.679396 842.49925C347.338998 860.618614 380.711387 874.592022 416.028791 883.651704L438.703589 988.938518C438.703589 1018.216135 463.272218 1023.692892 493.573528 1023.692892L530.119364 1023.692892C560.420674 1023.692892 584.938119 1018.216135 584.938119 988.938518L607.664101 883.651704C642.981506 874.592022 676.353894 860.618614 706.962311 842.49925L797.507948 900.90093C818.186544 921.630711 839.428172 908.117965 860.823353 886.671599L886.671599 860.823353C908.117965 839.428172 921.630711 818.186544 900.90093 797.507948L842.49925 706.962311C860.56743 676.353894 874.592022 642.981506 883.651704 607.664101L988.938518 584.938119C1018.216135 584.938119 1023.692892 560.420674 1023.692892 530.119364L1023.692892 493.573528C1023.692892 463.272218 1018.216135 438.703589 988.938518 438.703589L988.938518 438.703589ZM511.846446 749.496751C380.609017 749.496751 274.196141 643.083875 274.196141 511.846446 274.196141 380.609017 380.609017 274.196141 511.846446 274.196141 643.083875 274.196141 749.496751 380.609017 749.496751 511.846446 749.496751 643.083875 643.083875 749.496751 511.846446 749.496751L511.846446 749.496751ZM511.846446 402.157753C451.243827 402.157753 402.157753 451.243827 402.157753 511.846446 402.157753 572.397881 451.243827 621.535139 511.846446 621.535139 572.397881 621.535139 621.535139 572.397881 621.535139 511.846446 621.535139 451.243827 572.397881 402.157753 511.846446 402.157753L511.846446 402.157753Z" /></svg>