<?xml version="1.0" standalone="no"?><!DOCTYPE svg PUBLIC "-//W3C//DTD SVG 1.1//EN" "http://www.w3.org/Graphics/SVG/1.1/DTD/svg11.dtd"><svg class="icon" width="200px" height="187.55px" viewBox="0 0 1092 1024" version="1.1" xmlns="http://www.w3.org/2000/svg"><path fill="#1296db" d="M989.866667 455.338667V750.933333c0 57.070933-42.325333 102.4-93.320534 102.4H195.720533C144.725333 853.333333 102.4 808.004267 102.4 750.933333V204.8c0-57.070933 42.325333-102.4 93.320533-102.4h710.656c33.450667 0 63.6928 21.981867 76.8 55.842133a34.133333 34.133333 0 1 0 63.624534-24.712533C1023.726933 74.1376 968.772267 34.133333 906.376533 34.133333H195.720533C105.949867 34.133333 34.133333 111.069867 34.133333 204.8v546.133333c0 93.730133 71.816533 170.666667 161.5872 170.666667h700.8256c89.770667 0 161.5872-76.936533 161.5872-170.666667V455.338667a34.133333 34.133333 0 1 0-68.266666 0zM398.336 691.336533a34.133333 34.133333 0 0 0 63.8976 5.802667l124.040533-264.465067 91.818667 114.346667a34.133333 34.133333 0 0 0 50.858667 2.730667l182.749866-184.388267a34.133333 34.133333 0 1 0-48.469333-48.059733L707.3792 474.453333 605.252267 347.272533a34.133333 34.133333 0 0 0-57.5488 6.826667L440.388267 582.997333l-33.245867-126.5664a34.133333 34.133333 0 0 0-55.0912-17.408l-169.301333 143.36a34.133333 34.133333 0 0 0 44.100266 52.087467l128-108.3392 43.485867 165.2736zM309.4528 1024h473.361067c20.0704 0 36.386133-15.291733 36.386133-34.133333s-16.315733-34.133333-36.386133-34.133334H309.4528c-20.0704 0-36.386133 15.291733-36.386133 34.133334s16.315733 34.133333 36.386133 34.133333z" /></svg>